<svg xmlns="http://www.w3.org/2000/svg" xmlns:xlink="http://www.w3.org/1999/xlink" width="500" zoomAndPan="magnify" viewBox="0 0 375 374.999991" height="500" preserveAspectRatio="xMidYMid meet" version="1.0"><defs><g/><clipPath id="3f91808916"><path d="M 3 19.675781 L 362 19.675781 L 362 352 L 3 352 Z M 3 19.675781 " clip-rule="nonzero"/></clipPath><clipPath id="c676c4f47c"><path d="M 292.632812 46.730469 C 258.335938 25.128906 249.144531 24.140625 208.839844 19.675781 C 116.445312 20.773438 41.546875 74.148438 12.554688 161.894531 C 2.636719 191.910156 0 225.480469 11.640625 254.875 C 26.941406 293.496094 64.976562 319.667969 105.171875 330.210938 C 145.367188 340.789062 189.625 355.324219 230.84375 350.308594 C 262.984375 346.390625 295.085938 322.890625 319.136719 301.21875 C 335.097656 286.832031 345.054688 266.882812 351.71875 246.457031 C 375 175.363281 355.929688 86.628906 292.632812 46.730469 " clip-rule="nonzero"/></clipPath></defs><g clip-path="url(#3f91808916)"><g clip-path="url(#c676c4f47c)"><path fill="#7bccc0" d="M 0 19.675781 L 374.855469 19.675781 L 374.855469 355.359375 L 0 355.359375 Z M 0 19.675781 " fill-opacity="1" fill-rule="nonzero"/></g></g><g fill="#ffffff" fill-opacity="1"><g transform="translate(112.856277, 267.259203)"><g><path d="M 90.839844 -9.816406 L 90.839844 -19.402344 C 90.839844 -25.105469 90.839844 -29.445312 90.613281 -32.183594 L 90.382812 -49.300781 C 90.382812 -56.375 90.613281 -67.558594 91.070312 -82.625 L 91.753906 -110.925781 L 92.210938 -125.078125 C 97.230469 -124.394531 103.851562 -123.9375 112.066406 -123.9375 C 119.601562 -123.9375 126.449219 -123.707031 133.066406 -123.023438 C 133.980469 -122.796875 135.347656 -122.796875 137.175781 -122.796875 C 144.480469 -122.796875 148.359375 -125.535156 149.042969 -130.785156 C 149.273438 -131.925781 149.273438 -133.523438 149.273438 -135.578125 C 149.273438 -137.175781 148.816406 -139.914062 148.128906 -144.023438 C 147.445312 -146.988281 144.707031 -148.816406 139.683594 -149.726562 C 134.4375 -150.640625 126.675781 -151.324219 116.175781 -151.554688 C 112.980469 -151.78125 106.589844 -151.78125 96.777344 -151.78125 C 86.503906 -151.78125 79.199219 -151.78125 74.636719 -151.554688 C 59.117188 -151.324219 45.191406 -150.871094 32.867188 -149.957031 C 21.226562 -149.273438 13.011719 -148.585938 8.671875 -147.902344 C 4.109375 -147.21875 1.597656 -145.390625 0.914062 -142.425781 C 0.226562 -140.371094 0 -138.316406 0 -135.804688 C 0 -134.664062 0.226562 -132.609375 0.457031 -129.871094 C 0.683594 -128.046875 1.824219 -126.449219 4.109375 -125.304688 C 6.164062 -124.164062 8.445312 -123.480469 10.726562 -123.707031 C 14.835938 -123.9375 22.367188 -124.164062 33.09375 -124.164062 C 35.605469 -124.164062 39.03125 -124.164062 43.824219 -124.394531 C 48.386719 -124.621094 51.8125 -124.621094 54.320312 -124.851562 L 53.636719 -118.457031 C 52.953125 -111.839844 52.269531 -105.449219 51.8125 -99.058594 C 50.671875 -82.851562 49.984375 -70.527344 49.757812 -62.082031 L 48.617188 -24.648438 L 48.386719 -19.855469 C 47.929688 -16.660156 47.703125 -13.011719 47.703125 -8.902344 C 47.703125 -0.914062 49.300781 3.421875 52.722656 4.109375 C 57.289062 5.019531 61.855469 5.476562 66.191406 5.476562 C 71.898438 5.476562 77.832031 4.792969 84.449219 3.421875 C 87.1875 2.738281 89.015625 1.597656 89.699219 -0.226562 C 90.382812 -2.054688 90.839844 -5.25 90.839844 -9.816406 Z M 90.839844 -9.816406 "/></g></g></g></svg>